Coordinates
version=1
nRows=14
nColumns=40
inDegrees=yes

Units are S.I. units (second, meters, Newtons, ...)
Angles are in degrees.

endheader
time	pelvis_tilt	pelvis_list	pelvis_rotation	pelvis_tx	pelvis_ty	pelvis_tz	hip_flexion_r	hip_adduction_r	hip_rotation_r	knee_angle_r	knee_angle_r_beta	ankle_angle_r	subtalar_angle_r	mtp_angle_r	hip_flexion_l	hip_adduction_l	hip_rotation_l	knee_angle_l	knee_angle_l_beta	ankle_angle_l	subtalar_angle_l	mtp_angle_l	lumbar_extension	lumbar_bending	lumbar_rotation	arm_flex_r	arm_add_r	arm_rot_r	elbow_flex_r	pro_sup_r	wrist_flex_r	wrist_dev_r	arm_flex_l	arm_add_l	arm_rot_l	elbow_flex_l	pro_sup_l	wrist_flex_l	wrist_dev_l
     45.06000000	     -2.97005585	      1.79384750	      0.87254257	      1.23987562	      0.98333442	     -0.53412119	     -4.18855291	     -2.66457048	      3.65968592	     48.37249874	     48.37249874	      2.37299996	      0.00000000	      0.00000000	     26.57263408	      5.39523697	      0.89609915	     32.44453474	     32.44453474	      6.53204798	      0.00000000	      0.00000000	    -15.98230234	     -5.94003658	      8.13566921	    -15.00000005	    -19.99999993	    -15.00000004	    119.99999992	     89.99827284	      0.00000000	      0.00000000	    -14.99999991	    -19.99999953	    -14.99999998	    119.99999993	     89.99827282	      0.00000000	      0.00000000
     45.07000000	     -2.12748486	      1.95698043	      1.33343704	      1.23820438	      0.97972342	     -0.53667671	     -2.70910627	     -3.56275035	      2.60496343	     51.00977408	     51.00977408	      5.17431078	      0.00000000	      0.00000000	     26.05969448	      6.38646341	      2.88176342	     36.83846193	     36.83846193	      9.76553640	      0.00000000	      0.00000000	    -17.29797512	     -5.70966962	      6.56046066	    -15.00000005	    -19.99999993	    -15.00000004	    119.99999992	     89.99827284	      0.00000000	      0.00000000	    -14.99999991	    -19.99999953	    -14.99999998	    119.99999993	     89.99827282	      0.00000000	      0.00000000
     45.08000000	     -1.69710588	      2.14418031	      2.00209372	      1.23656352	      0.97655123	     -0.53928321	     -0.71882457	     -4.49961392	      1.40058225	     53.23573693	     53.23573693	      7.59777141	      0.00000000	      0.00000000	     25.32714420	      7.34204378	      4.40367925	     39.80432378	     39.80432378	     12.18529251	      0.00000000	      0.00000000	    -18.21893852	     -5.49628369	      4.77573183	    -15.00000005	    -19.99999993	    -15.00000004	    119.99999992	     89.99827284	      0.00000000	      0.00000000	    -14.99999991	    -19.99999953	    -14.99999998	    119.99999993	     89.99827282	      0.00000000	      0.00000000
     45.09000000	     -1.75141208	      2.97917199	      2.47754190	      1.23457779	      0.97378661	     -0.54170303	      2.00790522	     -6.22941634	      0.50062416	     55.32302299	     55.32302299	      9.60344422	      0.00000000	      0.00000000	     24.17088980	      8.52364603	      4.65861525	     40.85580855	     40.85580855	     14.24471199	      0.00000000	      0.00000000	    -18.64345218	     -6.01797111	      3.03070065	    -15.00000005	    -19.99999993	    -15.00000004	    119.99999992	     89.99827284	      0.00000000	      0.00000000	    -14.99999991	    -19.99999953	    -14.99999998	    119.99999993	     89.99827282	      0.00000000	      0.00000000
     45.10000000	     -2.02412522	      3.97726175	      2.56403063	      1.23251165	      0.97163672	     -0.54312715	      5.17198913	     -8.03753342	      0.25980805	     57.10731521	     57.10731521	     11.39669173	      0.00000000	      0.00000000	     22.51785971	      9.62346188	      4.39616640	     40.54985495	     40.54985495	     15.89837802	      0.00000000	      0.00000000	    -18.80421214	     -6.83479088	      1.56906771	    -15.00000005	    -19.99999993	    -15.00000004	    119.99999992	     89.99827284	      0.00000000	      0.00000000	    -14.99999991	    -19.99999953	    -14.99999998	    119.99999993	     89.99827282	      0.00000000	      0.00000000
     45.11000000	     -2.11299895	      4.13421452	      2.28665254	      1.23095788	      0.97059651	     -0.54319923	      8.11966363	     -8.54287164	      0.67697320	     58.03923490	     58.03923490	     12.27438750	      0.00000000	      0.00000000	     20.43988984	      9.61563947	      3.99239421	     39.90998172	     39.90998172	     17.93641058	      0.00000000	      0.00000000	    -18.96716405	     -6.80442013	      0.73046702	    -15.00000005	    -19.99999993	    -15.00000004	    119.99999992	     89.99827284	      0.00000000	      0.00000000	    -14.99999991	    -19.99999953	    -14.99999998	    119.99999993	     89.99827282	      0.00000000	      0.00000000
     45.12000000	     -2.34911376	      3.99927026	      1.79192329	      1.22977439	      0.96999935	     -0.54294009	     11.21699182	     -8.57651181	      1.32321574	     58.41675478	     58.41675478	     12.68854893	      0.00000000	      0.00000000	     18.47108136	      9.18639420	      3.32558344	     39.09235202	     39.09235202	     19.48794524	      0.00000000	      0.00000000	    -18.78101643	     -6.47425941	      0.28966043	    -15.00000005	    -19.99999993	    -15.00000004	    119.99999992	     89.99827284	      0.00000000	      0.00000000	    -14.99999991	    -19.99999953	    -14.99999998	    119.99999993	     89.99827282	      0.00000000	      0.00000000
     45.13000000	     -2.61476899	      3.75860410	      1.19548022	      1.22861434	      0.97033403	     -0.54253013	     14.24955833	     -8.35773190	      2.02847941	     58.23283035	     58.23283035	     12.82785807	      0.00000000	      0.00000000	     16.48397693	      8.71884689	      2.76579838	     38.11481915	     38.11481915	     20.71348275	      0.00000000	      0.00000000	    -18.48311673	     -6.01026856	     -0.00877086	    -15.00000005	    -19.99999993	    -15.00000004	    119.99999992	     89.99827284	      0.00000000	      0.00000000	    -14.99999991	    -19.99999953	    -14.99999998	    119.99999993	     89.99827282	      0.00000000	      0.00000000
     45.14000000	     -2.88643180	      3.56067417	      0.53530692	      1.22811126	      0.97167478	     -0.54202833	     17.04696451	     -8.08444064	      2.68061146	     57.36703982	     57.36703982	     13.16286209	      0.00000000	      0.00000000	     14.35127099	      8.44063530	      2.60067308	     36.86932874	     36.86932874	     21.40592406	      0.00000000	      0.00000000	    -18.07458639	     -5.57293713	     -0.36978222	    -15.00000005	    -19.99999993	    -15.00000004	    119.99999992	     89.99827284	      0.00000000	      0.00000000	    -14.99999991	    -19.99999953	    -14.99999998	    119.99999993	     89.99827282	      0.00000000	      0.00000000
     45.15000000	     -3.40596097	      3.13424274	     -0.14332152	      1.22738348	      0.97324147	     -0.54146123	     19.97867757	     -7.46787135	      3.16145345	     55.99149891	     55.99149891	     13.24457982	      0.00000000	      0.00000000	     12.41411320	      8.05207068	      2.85641371	     35.45859019	     35.45859019	     21.57333357	      0.00000000	      0.00000000	    -17.37388224	     -4.81202927	     -0.79486564	    -15.00000005	    -19.99999993	    -15.00000004	    119.99999992	     89.99827284	      0.00000000	      0.00000000	    -14.99999991	    -19.99999953	    -14.99999998	    119.99999993	     89.99827282	      0.00000000	      0.00000000
     45.16000000	     -3.49431118	      2.53108235	     -1.18974765	      1.22725280	      0.97597927	     -0.54017570	     22.11860506	     -6.43141343	      3.73456782	     53.96965544	     53.96965544	     13.46660642	      0.00000000	      0.00000000	      9.79721260	      7.32839233	      2.43934395	     33.61094257	     33.61094257	     22.02910986	      0.00000000	      0.00000000	    -17.09335851	     -3.93756821	     -1.00436024	    -15.00000005	    -19.99999993	    -15.00000004	    119.99999992	     89.99827284	      0.00000000	      0.00000000	    -14.99999991	    -19.99999953	    -14.99999998	    119.99999993	     89.99827282	      0.00000000	      0.00000000
     45.17000000	     -3.72991387	      1.77265306	     -2.24437446	      1.22754527	      0.97944186	     -0.53912449	     24.04813517	     -5.21608686	      3.99363315	     51.29031808	     51.29031808	     13.58806231	      0.00000000	      0.00000000	      7.12189467	      6.46253429	      1.88609521	     31.29216612	     31.29216612	     21.17530044	      0.00000000	      0.00000000	    -16.65146776	     -2.78127707	     -1.10918406	    -15.00000005	    -19.99999993	    -15.00000004	    119.99999992	     89.99827284	      0.00000000	      0.00000000	    -14.99999991	    -19.99999953	    -14.99999998	    119.99999993	     89.99827282	      0.00000000	      0.00000000
     45.18000000	     -4.04421627	      1.00161585	     -3.17791062	      1.22830322	      0.98325864	     -0.53837281	     25.71321285	     -4.01091990	      3.92302242	     48.01599182	     48.01599182	     13.11869930	      0.00000000	      0.00000000	      4.38247308	      5.58434062	      1.16635409	     28.66200351	     28.66200351	     19.62018692	      0.00000000	      0.00000000	    -16.10946939	     -1.52472949	     -1.43090172	    -15.00000005	    -19.99999993	    -15.00000004	    119.99999992	     89.99827284	      0.00000000	      0.00000000	    -14.99999991	    -19.99999953	    -14.99999998	    119.99999993	     89.99827282	      0.00000000	      0.00000000
     45.19000000	     -4.45483319	      0.23087597	     -4.22378657	      1.22923053	      0.98740892	     -0.53731579	     27.20846290	     -2.66887664	      3.82623376	     44.23997263	     44.23997263	     12.20376244	      0.00000000	      0.00000000	      1.72539730	      4.69991214	     -0.00493641	     25.85089798	     25.85089798	     17.38872914	      0.00000000	      0.00000000	    -15.51146931	     -0.28804473	     -1.70548303	    -15.00000005	    -19.99999993	    -15.00000004	    119.99999992	     89.99827284	      0.00000000	      0.00000000	    -14.99999991	    -19.99999953	    -14.99999998	    119.99999993	     89.99827282	      0.00000000	      0.00000000
